{"title":"Nirvana - In Utero (Blu-ray Pure Audio Disk) [24-96] [FLAC]","uid":9634119,"size":932840357,"categoryP":"audio","categoryS":"flac","magnet":"?xt=urn:btih:fe03af7a346d8cff07bae0e8dd3aa569084546a8&amp;dn=Nirvana+-+In+Utero+%28Blu-ray+Pure+Audio+Disk%29+%5B24-96%5D+%5BFLAC%5D&amp;tr=udp%3A%2F%2Ftracker.openbittorrent.com%3A80&amp;tr=udp%3A%2F%2Fopen.demonii.com%3A1337&amp;tr=udp%3A%2F%2Ftracker.coppersurfer.tk%3A6969&amp;tr=udp%3A%2F%2Fexodus.desync.com%3A6969","seeders":1,"leechers":0,"uploader":"s0bersky","files":-1,"time":1392825209,"description":"Nirvana - In Utero (Blu-ray Pure Audio Disk) [24bit/96kHz] [FLAC]\n\nGenre     : Rock\nStyle     : Grunge, Alternative Rock\nYear      : 1993 \n\nTracklist :\n\n01. Serve The Servants\n02. Scentless Apprentice\n03. Heart-Shaped Box\n04. Rape Me\n05. Frances Farmer Will Have Her Revenge On Seattle\n06. Dumb\n07. Very Ape\n08. Milk It\n09. Pennyroyal Tea\n10. Radio Friendly Unit Shifter\n11. Tourette's\n12. All Apologies\n\n\n\nAudio files has been extracted using AVS Audio Conventer 7.2 - it is original LPCM 2.0 stream (24bit/96kHz) converted into WAV format and compressed using lossless FLAC encoder ver. 1.3.0\n\nCUE sheet has been made manually.\n\n================================================================================\nTechnical info:\n--------------------------------------------------------------------------------\nGeneral\nComplete name                            : C:LosslessNirvana - In Utero (Blu-ray Pure Audio Disk) [24-96] [FLAC]Nirvana - In Utero.flac\nFormat                                   : FLAC\nFormat/Info                              : Free Lossless Audio Codec\nFile size                                : 889 MiB\nDuration                                 : 41mn 25s\nOverall bit rate mode                    : Variable\nOverall bit rate                         : 2 999 Kbps\n\nAudio\nFormat                                   : FLAC\nFormat/Info                              : Free Lossless Audio Codec\nDuration                                 : 41mn 25s\nBit rate mode                            : Variable\nBit rate                                 : 2 999 Kbps\nChannel(s)                               : 2 channels\nSampling rate                            : 96.0 KHz\nBit depth                                : 24 bits\nStream size                              : 889 MiB (100%)\nWriting library                          : libFLAC 1.3.0 (UTC 2013-05-26)\n\nfoobar2000 1.3.1 / Dynamic Range Meter 1.1.1\nlog date: 2014-02-17 21:28:03\n\n--------------------------------------------------------------------------------\nAnalyzed: Nirvana / In Utero\n--------------------------------------------------------------------------------\n\nDR         Peak         RMS     Duration Track\n--------------------------------------------------------------------------------\nDR10      -0.06 dB   -10.55 dB      3:36 01-Serve The Servants\nDR9       -0.06 dB    -9.68 dB      3:48 02-Scentless Apprentice\nDR9       -0.05 dB   -11.37 dB      4:41 03-Heart-Shaped Box\nDR9       -0.10 dB   -11.82 dB      2:50 04-Rape Me\nDR10      -0.10 dB   -11.65 dB      4:10 05-Frances Farmer Will Have Her Revenge On Seattle\nDR10      -0.06 dB   -11.79 dB      2:32 06-Dumb\nDR9       -0.07 dB   -10.69 dB      1:56 07-Very Ape\nDR10      -0.12 dB   -12.65 dB      3:55 08-Milk It\nDR9       -0.12 dB   -11.87 dB      3:39 09-Pennyroyal Tea\nDR10       0.00 dB   -11.84 dB      4:51 10-Radio Friendly Unit Shifter\nDR10      -0.10 dB   -11.54 dB      1:35 11-Tourette's\nDR10      -0.11 dB   -11.91 dB      3:52 12-All Apologies\n--------------------------------------------------------------------------------\n\nNumber of tracks:  12\nOfficial DR value: DR10\n\nSamplerate:        96000 Hz\nChannels:          2\nBits per sample:   24\nBitrate:           2999 kbps\nCodec:             FLAC\n--------------------------------------------------------------------------------\nSpectrogram: http://i.imgur.com/xuxEVt4.png\n================================================================================","torrent":{"xt":"urn:btih:fe03af7a346d8cff07bae0e8dd3aa569084546a8","amp;dn":"Nirvana+-+In+Utero+%28Blu-ray+Pure+Audio+Disk%29+%5B24-96%5D+%5BFLAC%5D","amp;tr":["udp%3A%2F%2Ftracker.openbittorrent.com%3A80","udp%3A%2F%2Fopen.demonii.com%3A1337","udp%3A%2F%2Ftracker.coppersurfer.tk%3A6969","udp%3A%2F%2Fexodus.desync.com%3A6969"],"infoHash":"fe03af7a346d8cff07bae0e8dd3aa569084546a8","infoHashBuffer":{"type":"Buffer","data":[254,3,175,122,52,109,140,255,7,186,224,232,221,58,165,105,8,69,70,168]},"announce":[],"urlList":[]}}